{
    "asset" : {
        "generator" : "Khronos glTF Blender I/O v1.6.16",
        "version" : "2.0"
    },
    "scene" : 0,
    "scenes" : [
        {
            "name" : "Scene",
            "nodes" : [
                0,
                1,
                2
            ]
        }
    ],
    "nodes" : [
        {
            "mesh" : 0,
            "name" : "Cube",
            "translation" : [
                0,
                -1,
                0
            ]
        },
        {
            "mesh" : 1,
            "name" : "Cube.001",
            "scale" : [
                0.44883471727371216,
                0.20840108394622803,
                0.44883471727371216
            ],
            "translation" : [
                2.515089511871338,
                -0.10706672072410583,
                -2.4956142902374268
            ]
        },
        {
            "mesh" : 2,
            "name" : "grate rods 1",
            "scale" : [
                1.0169047117233276,
                0.7209076285362244,
                1.0169047117233276
            ],
            "translation" : [
                0,
                -0.1801227629184723,
                0
            ]
        }
    ],
    "materials" : [
        {
            "doubleSided" : true,
            "name" : "grate frame",
            "pbrMetallicRoughness" : {
                "baseColorFactor" : [
                    0.17885947227478027,
                    0.1350793093442917,
                    0.12029287219047546,
                    1
                ],
                "metallicFactor" : 0.875,
                "roughnessFactor" : 0.5
            }
        },
        {
            "doubleSided" : true,
            "name" : "grate frame dark",
            "pbrMetallicRoughness" : {
                "baseColorFactor" : [
                    0.10247069597244263,
                    0.06268291920423508,
                    0.06268291920423508,
                    1
                ],
                "metallicFactor" : 0.8382353186607361,
                "roughnessFactor" : 0.7014706134796143
            }
        },
        {
            "doubleSided" : true,
            "name" : "grate rods",
            "pbrMetallicRoughness" : {
                "baseColorFactor" : [
                    0.09962286055088043,
                    0.05897868052124977,
                    0.05897868052124977,
                    1
                ],
                "metallicFactor" : 0.8382353186607361,
                "roughnessFactor" : 0.9147058725357056
            }
        }
    ],
    "meshes" : [
        {
            "name" : "Cube.001",
            "primitives" : [
                {
                    "attributes" : {
                        "POSITION" : 0,
                        "NORMAL" : 1,
                        "TEXCOORD_0" : 2
                    },
                    "indices" : 3,
                    "material" : 0
                }
            ]
        },
        {
            "name" : "Cube.005",
            "primitives" : [
                {
                    "attributes" : {
                        "POSITION" : 4,
                        "NORMAL" : 5,
                        "TEXCOORD_0" : 6
                    },
                    "indices" : 7,
                    "material" : 0
                },
                {
                    "attributes" : {
                        "POSITION" : 8,
                        "NORMAL" : 9,
                        "TEXCOORD_0" : 10
                    },
                    "indices" : 11,
                    "material" : 1
                }
            ]
        },
        {
            "name" : "Cube.003",
            "primitives" : [
                {
                    "attributes" : {
                        "POSITION" : 12,
                        "NORMAL" : 13,
                        "TEXCOORD_0" : 14
                    },
                    "indices" : 15,
                    "material" : 2
                }
            ]
        }
    ],
    "accessors" : [
        {
            "bufferView" : 0,
            "componentType" : 5126,
            "count" : 340,
            "max" : [
                3.0259809494018555,
                1,
                3.0259809494018555
            ],
            "min" : [
                -3.0259809494018555,
                0.6246941089630127,
                -3.0259809494018555
            ],
            "type" : "VEC3"
        },
        {
            "bufferView" : 1,
            "componentType" : 5126,
            "count" : 340,
            "type" : "VEC3"
        },
        {
            "bufferView" : 2,
            "componentType" : 5126,
            "count" : 340,
            "type" : "VEC2"
        },
        {
            "bufferView" : 3,
            "componentType" : 5123,
            "count" : 576,
            "type" : "SCALAR"
        },
        {
            "bufferView" : 4,
            "componentType" : 5126,
            "count" : 174,
            "max" : [
                1.33096182346344,
                0.9999999403953552,
                1.3309619426727295
            ],
            "min" : [
                -1.33096182346344,
                -1.0413832664489746,
                -1.3309617042541504
            ],
            "type" : "VEC3"
        },
        {
            "bufferView" : 5,
            "componentType" : 5126,
            "count" : 174,
            "type" : "VEC3"
        },
        {
            "bufferView" : 6,
            "componentType" : 5126,
            "count" : 174,
            "type" : "VEC2"
        },
        {
            "bufferView" : 7,
            "componentType" : 5123,
            "count" : 264,
            "type" : "SCALAR"
        },
        {
            "bufferView" : 8,
            "componentType" : 5126,
            "count" : 48,
            "max" : [
                0.7154070138931274,
                0.9165903329849243,
                0.6576429009437561
            ],
            "min" : [
                -0.5646997094154358,
                0.7704722881317139,
                -0.5856549143791199
            ],
            "type" : "VEC3"
        },
        {
            "bufferView" : 9,
            "componentType" : 5126,
            "count" : 48,
            "type" : "VEC3"
        },
        {
            "bufferView" : 10,
            "componentType" : 5126,
            "count" : 48,
            "type" : "VEC2"
        },
        {
            "bufferView" : 11,
            "componentType" : 5123,
            "count" : 72,
            "type" : "SCALAR"
        },
        {
            "bufferView" : 12,
            "componentType" : 5126,
            "count" : 633,
            "max" : [
                2.7817065715789795,
                0.18249952793121338,
                2.7817065715789795
            ],
            "min" : [
                -2.7817065715789795,
                -0.18250048160552979,
                -2.7817065715789795
            ],
            "type" : "VEC3"
        },
        {
            "bufferView" : 13,
            "componentType" : 5126,
            "count" : 633,
            "type" : "VEC3"
        },
        {
            "bufferView" : 14,
            "componentType" : 5126,
            "count" : 633,
            "type" : "VEC2"
        },
        {
            "bufferView" : 15,
            "componentType" : 5123,
            "count" : 960,
            "type" : "SCALAR"
        }
    ],
    "bufferViews" : [
        {
            "buffer" : 0,
            "byteLength" : 4080,
            "byteOffset" : 0
        },
        {
            "buffer" : 0,
            "byteLength" : 4080,
            "byteOffset" : 4080
        },
        {
            "buffer" : 0,
            "byteLength" : 2720,
            "byteOffset" : 8160
        },
        {
            "buffer" : 0,
            "byteLength" : 1152,
            "byteOffset" : 10880
        },
        {
            "buffer" : 0,
            "byteLength" : 2088,
            "byteOffset" : 12032
        },
        {
            "buffer" : 0,
            "byteLength" : 2088,
            "byteOffset" : 14120
        },
        {
            "buffer" : 0,
            "byteLength" : 1392,
            "byteOffset" : 16208
        },
        {
            "buffer" : 0,
            "byteLength" : 528,
            "byteOffset" : 17600
        },
        {
            "buffer" : 0,
            "byteLength" : 576,
            "byteOffset" : 18128
        },
        {
            "buffer" : 0,
            "byteLength" : 576,
            "byteOffset" : 18704
        },
        {
            "buffer" : 0,
            "byteLength" : 384,
            "byteOffset" : 19280
        },
        {
            "buffer" : 0,
            "byteLength" : 144,
            "byteOffset" : 19664
        },
        {
            "buffer" : 0,
            "byteLength" : 7596,
            "byteOffset" : 19808
        },
        {
            "buffer" : 0,
            "byteLength" : 7596,
            "byteOffset" : 27404
        },
        {
            "buffer" : 0,
            "byteLength" : 5064,
            "byteOffset" : 35000
        },
        {
            "buffer" : 0,
            "byteLength" : 1920,
            "byteOffset" : 40064
        }
    ],
    "buffers" : [
        {
            "byteLength" : 41984,
            "uri" : "data:application/octet-stream;base64,"
        }
    ]
}
