{
    "asset" : {
        "generator" : "Khronos glTF Blender I/O v1.6.16",
        "version" : "2.0"
    },
    "scene" : 0,
    "scenes" : [
        {
            "name" : "Scene",
            "nodes" : [
                0
            ]
        }
    ],
    "nodes" : [
        {
            "mesh" : 0,
            "name" : "weight tile",
            "translation" : [
                0,
                -0.6968957185745239,
                0
            ]
        }
    ],
    "materials" : [
        {
            "doubleSided" : true,
            "name" : "ground darkest",
            "pbrMetallicRoughness" : {
                "baseColorFactor" : [
                    0.09781879186630249,
                    0.03494608774781227,
                    0.0012767529115080833,
                    1
                ],
                "metallicFactor" : 0,
                "roughnessFactor" : 0.654411792755127
            }
        },
        {
            "doubleSided" : true,
            "name" : "ground dark",
            "pbrMetallicRoughness" : {
                "baseColorFactor" : [
                    0.09462278336286545,
                    0.0369834378361702,
                    0.0061284624971449375,
                    1
                ],
                "metallicFactor" : 0,
                "roughnessFactor" : 0.8676470518112183
            }
        },
        {
            "doubleSided" : true,
            "name" : "ground  var 1 darker",
            "pbrMetallicRoughness" : {
                "baseColorFactor" : [
                    0.08713683485984802,
                    0.043536897748708725,
                    0.013673610985279083,
                    1
                ],
                "metallicFactor" : 0,
                "roughnessFactor" : 0.6838235855102539
            }
        },
        {
            "doubleSided" : true,
            "name" : "ground  var 1",
            "pbrMetallicRoughness" : {
                "baseColorFactor" : [
                    0.1578378975391388,
                    0.07688326388597488,
                    0.023464078083634377,
                    1
                ],
                "metallicFactor" : 0,
                "roughnessFactor" : 0.6838235855102539
            }
        },
        {
            "doubleSided" : true,
            "name" : "red gems",
            "pbrMetallicRoughness" : {
                "baseColorFactor" : [
                    0.20863692462444305,
                    0.024157604202628136,
                    0.020288562402129173,
                    1
                ],
                "metallicFactor" : 0,
                "roughnessFactor" : 0.5661764740943909
            }
        },
        {
            "doubleSided" : true,
            "emissiveFactor" : [
                0.531427346638452,
                0.057237160048934754,
                0.06172003808100257
            ],
            "name" : "red gems center",
            "pbrMetallicRoughness" : {
                "baseColorFactor" : [
                    0.20863692462444305,
                    0.024157604202628136,
                    0.020288562402129173,
                    1
                ],
                "metallicFactor" : 0,
                "roughnessFactor" : 0.5661764740943909
            }
        }
    ],
    "meshes" : [
        {
            "name" : "Cube.013",
            "primitives" : [
                {
                    "attributes" : {
                        "POSITION" : 0,
                        "NORMAL" : 1,
                        "TEXCOORD_0" : 2
                    },
                    "indices" : 3,
                    "material" : 0
                },
                {
                    "attributes" : {
                        "POSITION" : 4,
                        "NORMAL" : 5,
                        "TEXCOORD_0" : 6
                    },
                    "indices" : 7,
                    "material" : 1
                },
                {
                    "attributes" : {
                        "POSITION" : 8,
                        "NORMAL" : 9,
                        "TEXCOORD_0" : 10
                    },
                    "indices" : 11,
                    "material" : 2
                },
                {
                    "attributes" : {
                        "POSITION" : 12,
                        "NORMAL" : 13,
                        "TEXCOORD_0" : 14
                    },
                    "indices" : 15,
                    "material" : 3
                },
                {
                    "attributes" : {
                        "POSITION" : 16,
                        "NORMAL" : 17,
                        "TEXCOORD_0" : 18
                    },
                    "indices" : 19,
                    "material" : 4
                },
                {
                    "attributes" : {
                        "POSITION" : 20,
                        "NORMAL" : 21,
                        "TEXCOORD_0" : 22
                    },
                    "indices" : 23,
                    "material" : 5
                }
            ]
        }
    ],
    "accessors" : [
        {
            "bufferView" : 0,
            "componentType" : 5126,
            "count" : 1602,
            "max" : [
                2.760007858276367,
                1.2614977359771729,
                2.760007858276367
            ],
            "min" : [
                -2.760007858276367,
                0.01039576530456543,
                -2.760007858276367
            ],
            "type" : "VEC3"
        },
        {
            "bufferView" : 1,
            "componentType" : 5126,
            "count" : 1602,
            "type" : "VEC3"
        },
        {
            "bufferView" : 2,
            "componentType" : 5126,
            "count" : 1602,
            "type" : "VEC2"
        },
        {
            "bufferView" : 3,
            "componentType" : 5123,
            "count" : 3000,
            "type" : "SCALAR"
        },
        {
            "bufferView" : 4,
            "componentType" : 5126,
            "count" : 384,
            "max" : [
                2.760007858276367,
                1.0509494543075562,
                2.760007858276367
            ],
            "min" : [
                -2.760007858276367,
                0.01039576530456543,
                -2.760007858276367
            ],
            "type" : "VEC3"
        },
        {
            "bufferView" : 5,
            "componentType" : 5126,
            "count" : 384,
            "type" : "VEC3"
        },
        {
            "bufferView" : 6,
            "componentType" : 5126,
            "count" : 384,
            "type" : "VEC2"
        },
        {
            "bufferView" : 7,
            "componentType" : 5123,
            "count" : 1032,
            "type" : "SCALAR"
        },
        {
            "bufferView" : 8,
            "componentType" : 5126,
            "count" : 108,
            "max" : [
                2.5852415561676025,
                1.148300290107727,
                2.592951774597168
            ],
            "min" : [
                -2.5852415561676025,
                0.9262516498565674,
                -2.592951774597168
            ],
            "type" : "VEC3"
        },
        {
            "bufferView" : 9,
            "componentType" : 5126,
            "count" : 108,
            "type" : "VEC3"
        },
        {
            "bufferView" : 10,
            "componentType" : 5126,
            "count" : 108,
            "type" : "VEC2"
        },
        {
            "bufferView" : 11,
            "componentType" : 5123,
            "count" : 192,
            "type" : "SCALAR"
        },
        {
            "bufferView" : 12,
            "componentType" : 5126,
            "count" : 871,
            "max" : [
                2.760007858276367,
                1.2911865711212158,
                2.760007858276367
            ],
            "min" : [
                -2.760007858276367,
                0.8351843357086182,
                -2.760007858276367
            ],
            "type" : "VEC3"
        },
        {
            "bufferView" : 13,
            "componentType" : 5126,
            "count" : 871,
            "type" : "VEC3"
        },
        {
            "bufferView" : 14,
            "componentType" : 5126,
            "count" : 871,
            "type" : "VEC2"
        },
        {
            "bufferView" : 15,
            "componentType" : 5123,
            "count" : 1560,
            "type" : "SCALAR"
        },
        {
            "bufferView" : 16,
            "componentType" : 5126,
            "count" : 224,
            "max" : [
                2.760007858276367,
                1.1651439666748047,
                2.760007858276367
            ],
            "min" : [
                -2.760007858276367,
                1,
                -2.760007858276367
            ],
            "type" : "VEC3"
        },
        {
            "bufferView" : 17,
            "componentType" : 5126,
            "count" : 224,
            "type" : "VEC3"
        },
        {
            "bufferView" : 18,
            "componentType" : 5126,
            "count" : 224,
            "type" : "VEC2"
        },
        {
            "bufferView" : 19,
            "componentType" : 5123,
            "count" : 336,
            "type" : "SCALAR"
        },
        {
            "bufferView" : 20,
            "componentType" : 5126,
            "count" : 23,
            "max" : [
                0.20753201842308044,
                1.2911865711212158,
                0.20753200352191925
            ],
            "min" : [
                -0.20753201842308044,
                1.2911865711212158,
                -0.20753200352191925
            ],
            "type" : "VEC3"
        },
        {
            "bufferView" : 21,
            "componentType" : 5126,
            "count" : 23,
            "type" : "VEC3"
        },
        {
            "bufferView" : 22,
            "componentType" : 5126,
            "count" : 23,
            "type" : "VEC2"
        },
        {
            "bufferView" : 23,
            "componentType" : 5123,
            "count" : 48,
            "type" : "SCALAR"
        }
    ],
    "bufferViews" : [
        {
            "buffer" : 0,
            "byteLength" : 19224,
            "byteOffset" : 0
        },
        {
            "buffer" : 0,
            "byteLength" : 19224,
            "byteOffset" : 19224
        },
        {
            "buffer" : 0,
            "byteLength" : 12816,
            "byteOffset" : 38448
        },
        {
            "buffer" : 0,
            "byteLength" : 6000,
            "byteOffset" : 51264
        },
        {
            "buffer" : 0,
            "byteLength" : 4608,
            "byteOffset" : 57264
        },
        {
            "buffer" : 0,
            "byteLength" : 4608,
            "byteOffset" : 61872
        },
        {
            "buffer" : 0,
            "byteLength" : 3072,
            "byteOffset" : 66480
        },
        {
            "buffer" : 0,
            "byteLength" : 2064,
            "byteOffset" : 69552
        },
        {
            "buffer" : 0,
            "byteLength" : 1296,
            "byteOffset" : 71616
        },
        {
            "buffer" : 0,
            "byteLength" : 1296,
            "byteOffset" : 72912
        },
        {
            "buffer" : 0,
            "byteLength" : 864,
            "byteOffset" : 74208
        },
        {
            "buffer" : 0,
            "byteLength" : 384,
            "byteOffset" : 75072
        },
        {
            "buffer" : 0,
            "byteLength" : 10452,
            "byteOffset" : 75456
        },
        {
            "buffer" : 0,
            "byteLength" : 10452,
            "byteOffset" : 85908
        },
        {
            "buffer" : 0,
            "byteLength" : 6968,
            "byteOffset" : 96360
        },
        {
            "buffer" : 0,
            "byteLength" : 3120,
            "byteOffset" : 103328
        },
        {
            "buffer" : 0,
            "byteLength" : 2688,
            "byteOffset" : 106448
        },
        {
            "buffer" : 0,
            "byteLength" : 2688,
            "byteOffset" : 109136
        },
        {
            "buffer" : 0,
            "byteLength" : 1792,
            "byteOffset" : 111824
        },
        {
            "buffer" : 0,
            "byteLength" : 672,
            "byteOffset" : 113616
        },
        {
            "buffer" : 0,
            "byteLength" : 276,
            "byteOffset" : 114288
        },
        {
            "buffer" : 0,
            "byteLength" : 276,
            "byteOffset" : 114564
        },
        {
            "buffer" : 0,
            "byteLength" : 184,
            "byteOffset" : 114840
        },
        {
            "buffer" : 0,
            "byteLength" : 96,
            "byteOffset" : 115024
        }
    ],
    "buffers" : [
        {
            "byteLength" : 115120,
            "uri" : "data:application/octet-stream;base64,"
        }
    ]
}
