{
    "asset" : {
        "generator" : "Khronos glTF Blender I/O v1.6.16",
        "version" : "2.0"
    },
    "scene" : 0,
    "scenes" : [
        {
            "name" : "Scene",
            "nodes" : [
                0
            ]
        }
    ],
    "nodes" : [
        {
            "mesh" : 0,
            "name" : "bowl sand.001",
            "scale" : [
                1.2595324516296387,
                1,
                1.2595324516296387
            ]
        }
    ],
    "materials" : [
        {
            "doubleSided" : true,
            "name" : "bowl material.001",
            "pbrMetallicRoughness" : {
                "baseColorFactor" : [
                    0.05779990181326866,
                    0.03272939845919609,
                    0.015563509427011013,
                    1
                ],
                "metallicFactor" : 0,
                "roughnessFactor" : 0.8676470518112183
            }
        },
        {
            "doubleSided" : true,
            "name" : "bowl red line",
            "pbrMetallicRoughness" : {
                "baseColorFactor" : [
                    0.20890547335147858,
                    0.022815320640802383,
                    0.018360791727900505,
                    1
                ],
                "metallicFactor" : 0,
                "roughnessFactor" : 0.5661764740943909
            }
        },
        {
            "doubleSided" : true,
            "name" : "sand",
            "pbrMetallicRoughness" : {
                "metallicFactor" : 0
            }
        },
        {
            "doubleSided" : true,
            "name" : "metal legs of the bowl",
            "pbrMetallicRoughness" : {
                "baseColorFactor" : [
                    0.14047418534755707,
                    0.12482666224241257,
                    0.08916866034269333,
                    1
                ],
                "metallicFactor" : 0,
                "roughnessFactor" : 0.4288126528263092
            }
        },
        {
            "doubleSided" : true,
            "name" : "Material.001",
            "pbrMetallicRoughness" : {
                "baseColorFactor" : [
                    0.12371020019054413,
                    0.0656004399061203,
                    0.037278030067682266,
                    1
                ],
                "metallicFactor" : 0
            }
        },
        {
            "doubleSided" : true,
            "name" : "Material.002",
            "pbrMetallicRoughness" : {
                "baseColorFactor" : [
                    0.054966166615486145,
                    0.025192879140377045,
                    0.011830744333565235,
                    1
                ],
                "metallicFactor" : 0
            }
        }
    ],
    "meshes" : [
        {
            "name" : "Cylinder.002",
            "primitives" : [
                {
                    "attributes" : {
                        "POSITION" : 0,
                        "NORMAL" : 1,
                        "TEXCOORD_0" : 2
                    },
                    "indices" : 3,
                    "material" : 0
                },
                {
                    "attributes" : {
                        "POSITION" : 4,
                        "NORMAL" : 5,
                        "TEXCOORD_0" : 6
                    },
                    "indices" : 7,
                    "material" : 1
                },
                {
                    "attributes" : {
                        "POSITION" : 8,
                        "NORMAL" : 9,
                        "TEXCOORD_0" : 10
                    },
                    "indices" : 11,
                    "material" : 2
                },
                {
                    "attributes" : {
                        "POSITION" : 12,
                        "NORMAL" : 13,
                        "TEXCOORD_0" : 14
                    },
                    "indices" : 15,
                    "material" : 3
                },
                {
                    "attributes" : {
                        "POSITION" : 16,
                        "NORMAL" : 17,
                        "TEXCOORD_0" : 18
                    },
                    "indices" : 19,
                    "material" : 4
                },
                {
                    "attributes" : {
                        "POSITION" : 20,
                        "NORMAL" : 21,
                        "TEXCOORD_0" : 22
                    },
                    "indices" : 23,
                    "material" : 5
                }
            ]
        }
    ],
    "accessors" : [
        {
            "bufferView" : 0,
            "componentType" : 5126,
            "count" : 1058,
            "max" : [
                1.0987037420272827,
                1.5666133165359497,
                1.0987037420272827
            ],
            "min" : [
                -1.0987037420272827,
                0.5550739169120789,
                -1.0987037420272827
            ],
            "type" : "VEC3"
        },
        {
            "bufferView" : 1,
            "componentType" : 5126,
            "count" : 1058,
            "type" : "VEC3"
        },
        {
            "bufferView" : 2,
            "componentType" : 5126,
            "count" : 1058,
            "type" : "VEC2"
        },
        {
            "bufferView" : 3,
            "componentType" : 5123,
            "count" : 1632,
            "type" : "SCALAR"
        },
        {
            "bufferView" : 4,
            "componentType" : 5126,
            "count" : 64,
            "max" : [
                0.9988558292388916,
                1.4350019693374634,
                0.9988558292388916
            ],
            "min" : [
                -0.9988558292388916,
                1.2498598098754883,
                -0.9988558292388916
            ],
            "type" : "VEC3"
        },
        {
            "bufferView" : 5,
            "componentType" : 5126,
            "count" : 64,
            "type" : "VEC3"
        },
        {
            "bufferView" : 6,
            "componentType" : 5126,
            "count" : 64,
            "type" : "VEC2"
        },
        {
            "bufferView" : 7,
            "componentType" : 5123,
            "count" : 96,
            "type" : "SCALAR"
        },
        {
            "bufferView" : 8,
            "componentType" : 5126,
            "count" : 29,
            "max" : [
                0.8318434357643127,
                1.3360936641693115,
                0.8318434357643127
            ],
            "min" : [
                -0.8318434357643127,
                1.3360936641693115,
                -0.8318434357643127
            ],
            "type" : "VEC3"
        },
        {
            "bufferView" : 9,
            "componentType" : 5126,
            "count" : 29,
            "type" : "VEC3"
        },
        {
            "bufferView" : 10,
            "componentType" : 5126,
            "count" : 29,
            "type" : "VEC2"
        },
        {
            "bufferView" : 11,
            "componentType" : 5123,
            "count" : 48,
            "type" : "SCALAR"
        },
        {
            "bufferView" : 12,
            "componentType" : 5126,
            "count" : 1504,
            "max" : [
                1.7318406105041504,
                1.1186027526855469,
                1.7318406105041504
            ],
            "min" : [
                -1.7318406105041504,
                1.0728836059570312e-06,
                -1.7318406105041504
            ],
            "type" : "VEC3"
        },
        {
            "bufferView" : 13,
            "componentType" : 5126,
            "count" : 1504,
            "type" : "VEC3"
        },
        {
            "bufferView" : 14,
            "componentType" : 5126,
            "count" : 1504,
            "type" : "VEC2"
        },
        {
            "bufferView" : 15,
            "componentType" : 5123,
            "count" : 2256,
            "type" : "SCALAR"
        },
        {
            "bufferView" : 16,
            "componentType" : 5126,
            "count" : 222,
            "max" : [
                0.3146730065345764,
                1.417710781097412,
                0.6728876829147339
            ],
            "min" : [
                -0.4442254900932312,
                1.2309532165527344,
                -0.4585663378238678
            ],
            "type" : "VEC3"
        },
        {
            "bufferView" : 17,
            "componentType" : 5126,
            "count" : 222,
            "type" : "VEC3"
        },
        {
            "bufferView" : 18,
            "componentType" : 5126,
            "count" : 222,
            "type" : "VEC2"
        },
        {
            "bufferView" : 19,
            "componentType" : 5123,
            "count" : 222,
            "type" : "SCALAR"
        },
        {
            "bufferView" : 20,
            "componentType" : 5126,
            "count" : 168,
            "max" : [
                0.7029891610145569,
                1.403299331665039,
                0.053509823977947235
            ],
            "min" : [
                -0.6207499504089355,
                1.2453646659851074,
                -0.734768807888031
            ],
            "type" : "VEC3"
        },
        {
            "bufferView" : 21,
            "componentType" : 5126,
            "count" : 168,
            "type" : "VEC3"
        },
        {
            "bufferView" : 22,
            "componentType" : 5126,
            "count" : 168,
            "type" : "VEC2"
        },
        {
            "bufferView" : 23,
            "componentType" : 5123,
            "count" : 168,
            "type" : "SCALAR"
        }
    ],
    "bufferViews" : [
        {
            "buffer" : 0,
            "byteLength" : 12696,
            "byteOffset" : 0
        },
        {
            "buffer" : 0,
            "byteLength" : 12696,
            "byteOffset" : 12696
        },
        {
            "buffer" : 0,
            "byteLength" : 8464,
            "byteOffset" : 25392
        },
        {
            "buffer" : 0,
            "byteLength" : 3264,
            "byteOffset" : 33856
        },
        {
            "buffer" : 0,
            "byteLength" : 768,
            "byteOffset" : 37120
        },
        {
            "buffer" : 0,
            "byteLength" : 768,
            "byteOffset" : 37888
        },
        {
            "buffer" : 0,
            "byteLength" : 512,
            "byteOffset" : 38656
        },
        {
            "buffer" : 0,
            "byteLength" : 192,
            "byteOffset" : 39168
        },
        {
            "buffer" : 0,
            "byteLength" : 348,
            "byteOffset" : 39360
        },
        {
            "buffer" : 0,
            "byteLength" : 348,
            "byteOffset" : 39708
        },
        {
            "buffer" : 0,
            "byteLength" : 232,
            "byteOffset" : 40056
        },
        {
            "buffer" : 0,
            "byteLength" : 96,
            "byteOffset" : 40288
        },
        {
            "buffer" : 0,
            "byteLength" : 18048,
            "byteOffset" : 40384
        },
        {
            "buffer" : 0,
            "byteLength" : 18048,
            "byteOffset" : 58432
        },
        {
            "buffer" : 0,
            "byteLength" : 12032,
            "byteOffset" : 76480
        },
        {
            "buffer" : 0,
            "byteLength" : 4512,
            "byteOffset" : 88512
        },
        {
            "buffer" : 0,
            "byteLength" : 2664,
            "byteOffset" : 93024
        },
        {
            "buffer" : 0,
            "byteLength" : 2664,
            "byteOffset" : 95688
        },
        {
            "buffer" : 0,
            "byteLength" : 1776,
            "byteOffset" : 98352
        },
        {
            "buffer" : 0,
            "byteLength" : 444,
            "byteOffset" : 100128
        },
        {
            "buffer" : 0,
            "byteLength" : 2016,
            "byteOffset" : 100572
        },
        {
            "buffer" : 0,
            "byteLength" : 2016,
            "byteOffset" : 102588
        },
        {
            "buffer" : 0,
            "byteLength" : 1344,
            "byteOffset" : 104604
        },
        {
            "buffer" : 0,
            "byteLength" : 336,
            "byteOffset" : 105948
        }
    ],
    "buffers" : [
        {
            "byteLength" : 106284,
            "uri" : "data:application/octet-stream;base64,"
        }
    ]
}
