{
    "asset" : {
        "generator" : "Khronos glTF Blender I/O v1.6.16",
        "version" : "2.0"
    },
    "scene" : 0,
    "scenes" : [
        {
            "name" : "Scene",
            "nodes" : [
                0
            ]
        }
    ],
    "nodes" : [
        {
            "mesh" : 0,
            "name" : "bowl.002",
            "scale" : [
                1.2595324516296387,
                1,
                1.2595324516296387
            ],
            "translation" : [
                0.0029769837856292725,
                0.5701342821121216,
                1.5160833597183228
            ]
        }
    ],
    "materials" : [
        {
            "doubleSided" : true,
            "name" : "magma",
            "pbrMetallicRoughness" : {
                "metallicFactor" : 0
            }
        },
        {
            "doubleSided" : true,
            "name" : "bowl material",
            "pbrMetallicRoughness" : {
                "baseColorFactor" : [
                    0.05779990181326866,
                    0.03272939845919609,
                    0.015563509427011013,
                    1
                ],
                "metallicFactor" : 0,
                "roughnessFactor" : 0.8676470518112183
            }
        },
        {
            "doubleSided" : true,
            "name" : "bowl blue line",
            "pbrMetallicRoughness" : {
                "baseColorFactor" : [
                    0.0610598661005497,
                    0.10135919600725174,
                    0.20890577137470245,
                    1
                ],
                "metallicFactor" : 0,
                "roughnessFactor" : 0.5661764740943909
            }
        },
        {
            "doubleSided" : true,
            "name" : "bowl legs",
            "pbrMetallicRoughness" : {
                "baseColorFactor" : [
                    0.14047418534755707,
                    0.12482666224241257,
                    0.08916866034269333,
                    1
                ],
                "metallicFactor" : 0,
                "roughnessFactor" : 0.4288126528263092
            }
        }
    ],
    "meshes" : [
        {
            "name" : "Cylinder.006",
            "primitives" : [
                {
                    "attributes" : {
                        "POSITION" : 0,
                        "NORMAL" : 1,
                        "TEXCOORD_0" : 2
                    },
                    "indices" : 3,
                    "material" : 0
                },
                {
                    "attributes" : {
                        "POSITION" : 4,
                        "NORMAL" : 5,
                        "TEXCOORD_0" : 6
                    },
                    "indices" : 7,
                    "material" : 1
                },
                {
                    "attributes" : {
                        "POSITION" : 8,
                        "NORMAL" : 9,
                        "TEXCOORD_0" : 10
                    },
                    "indices" : 11,
                    "material" : 2
                },
                {
                    "attributes" : {
                        "POSITION" : 12,
                        "NORMAL" : 13,
                        "TEXCOORD_0" : 14
                    },
                    "indices" : 15,
                    "material" : 3
                }
            ]
        }
    ],
    "accessors" : [
        {
            "bufferView" : 0,
            "componentType" : 5126,
            "count" : 31,
            "max" : [
                0.8294798731803894,
                0.765961229801178,
                -0.37184399366378784
            ],
            "min" : [
                -0.8342069983482361,
                0.765961229801178,
                -2.0355308055877686
            ],
            "type" : "VEC3"
        },
        {
            "bufferView" : 1,
            "componentType" : 5126,
            "count" : 31,
            "type" : "VEC3"
        },
        {
            "bufferView" : 2,
            "componentType" : 5126,
            "count" : 31,
            "type" : "VEC2"
        },
        {
            "bufferView" : 3,
            "componentType" : 5123,
            "count" : 48,
            "type" : "SCALAR"
        },
        {
            "bufferView" : 4,
            "componentType" : 5126,
            "count" : 1068,
            "max" : [
                1.0963401794433594,
                0.9964809417724609,
                -0.10498368740081787
            ],
            "min" : [
                -1.101067304611206,
                -0.015058457851409912,
                -2.3023910522460938
            ],
            "type" : "VEC3"
        },
        {
            "bufferView" : 5,
            "componentType" : 5126,
            "count" : 1068,
            "type" : "VEC3"
        },
        {
            "bufferView" : 6,
            "componentType" : 5126,
            "count" : 1068,
            "type" : "VEC2"
        },
        {
            "bufferView" : 7,
            "componentType" : 5123,
            "count" : 1632,
            "type" : "SCALAR"
        },
        {
            "bufferView" : 8,
            "componentType" : 5126,
            "count" : 64,
            "max" : [
                0.9964922666549683,
                0.8648695945739746,
                -0.20483160018920898
            ],
            "min" : [
                -1.001219391822815,
                0.6797273755073547,
                -2.202543258666992
            ],
            "type" : "VEC3"
        },
        {
            "bufferView" : 9,
            "componentType" : 5126,
            "count" : 64,
            "type" : "VEC3"
        },
        {
            "bufferView" : 10,
            "componentType" : 5126,
            "count" : 64,
            "type" : "VEC2"
        },
        {
            "bufferView" : 11,
            "componentType" : 5123,
            "count" : 96,
            "type" : "SCALAR"
        },
        {
            "bufferView" : 12,
            "componentType" : 5126,
            "count" : 1504,
            "max" : [
                1.729477047920227,
                0.5484703779220581,
                0.5281531810760498
            ],
            "min" : [
                -1.7342041730880737,
                -0.5701313018798828,
                -2.935528039932251
            ],
            "type" : "VEC3"
        },
        {
            "bufferView" : 13,
            "componentType" : 5126,
            "count" : 1504,
            "type" : "VEC3"
        },
        {
            "bufferView" : 14,
            "componentType" : 5126,
            "count" : 1504,
            "type" : "VEC2"
        },
        {
            "bufferView" : 15,
            "componentType" : 5123,
            "count" : 2256,
            "type" : "SCALAR"
        }
    ],
    "bufferViews" : [
        {
            "buffer" : 0,
            "byteLength" : 372,
            "byteOffset" : 0
        },
        {
            "buffer" : 0,
            "byteLength" : 372,
            "byteOffset" : 372
        },
        {
            "buffer" : 0,
            "byteLength" : 248,
            "byteOffset" : 744
        },
        {
            "buffer" : 0,
            "byteLength" : 96,
            "byteOffset" : 992
        },
        {
            "buffer" : 0,
            "byteLength" : 12816,
            "byteOffset" : 1088
        },
        {
            "buffer" : 0,
            "byteLength" : 12816,
            "byteOffset" : 13904
        },
        {
            "buffer" : 0,
            "byteLength" : 8544,
            "byteOffset" : 26720
        },
        {
            "buffer" : 0,
            "byteLength" : 3264,
            "byteOffset" : 35264
        },
        {
            "buffer" : 0,
            "byteLength" : 768,
            "byteOffset" : 38528
        },
        {
            "buffer" : 0,
            "byteLength" : 768,
            "byteOffset" : 39296
        },
        {
            "buffer" : 0,
            "byteLength" : 512,
            "byteOffset" : 40064
        },
        {
            "buffer" : 0,
            "byteLength" : 192,
            "byteOffset" : 40576
        },
        {
            "buffer" : 0,
            "byteLength" : 18048,
            "byteOffset" : 40768
        },
        {
            "buffer" : 0,
            "byteLength" : 18048,
            "byteOffset" : 58816
        },
        {
            "buffer" : 0,
            "byteLength" : 12032,
            "byteOffset" : 76864
        },
        {
            "buffer" : 0,
            "byteLength" : 4512,
            "byteOffset" : 88896
        }
    ],
    "buffers" : [
        {
            "byteLength" : 93408,
            "uri" : "data:application/octet-stream;base64,"
        }
    ]
}
