{
    "asset" : {
        "generator" : "Khronos glTF Blender I/O v1.6.16",
        "version" : "2.0"
    },
    "scene" : 0,
    "scenes" : [
        {
            "name" : "Scene",
            "nodes" : [
                0
            ]
        }
    ],
    "nodes" : [
        {
            "mesh" : 0,
            "name" : "Cylinder.002",
            "rotation" : [
                0.7071068286895752,
                0,
                0,
                0.7071068286895752
            ],
            "scale" : [
                0.4667893648147583,
                1.0721614360809326,
                0.4667893648147583
            ]
        }
    ],
    "materials" : [
        {
            "doubleSided" : true,
            "name" : "glass and core 1",
            "pbrMetallicRoughness" : {
                "baseColorFactor" : [
                    0.06847816705703735,
                    0.18116433918476105,
                    0.7991029620170593,
                    1
                ],
                "metallicFactor" : 0,
                "roughnessFactor" : 0.5
            }
        },
        {
            "doubleSided" : true,
            "name" : "core blue",
            "pbrMetallicRoughness" : {
                "baseColorFactor" : [
                    0.09000828862190247,
                    0.43850940465927124,
                    0.8000000715255737,
                    1
                ],
                "metallicFactor" : 0,
                "roughnessFactor" : 0.5
            }
        },
        {
            "doubleSided" : true,
            "name" : "Material.001",
            "pbrMetallicRoughness" : {
                "baseColorFactor" : [
                    0.08228270709514618,
                    0.061246056109666824,
                    0.06301002949476242,
                    1
                ],
                "metallicFactor" : 0,
                "roughnessFactor" : 0.5
            }
        },
        {
            "doubleSided" : true,
            "name" : "Material.002",
            "pbrMetallicRoughness" : {
                "baseColorFactor" : [
                    0.013702086172997952,
                    0.010960093699395657,
                    0.015208516269922256,
                    1
                ],
                "metallicFactor" : 0,
                "roughnessFactor" : 0.5
            }
        },
        {
            "doubleSided" : true,
            "name" : "Material.003",
            "pbrMetallicRoughness" : {
                "baseColorFactor" : [
                    0.02315336838364601,
                    0.015208516269922256,
                    0.02028856985270977,
                    1
                ],
                "metallicFactor" : 0,
                "roughnessFactor" : 0.5
            }
        },
        {
            "doubleSided" : true,
            "name" : "Material.004",
            "pbrMetallicRoughness" : {
                "baseColorFactor" : [
                    0.038204375654459,
                    0.0284260381013155,
                    0.03189603611826897,
                    1
                ],
                "metallicFactor" : 0,
                "roughnessFactor" : 0.5
            }
        },
        {
            "doubleSided" : true,
            "name" : "Material.005",
            "pbrMetallicRoughness" : {
                "baseColorFactor" : [
                    0.057805441319942474,
                    0.04373503103852272,
                    0.048171836882829666,
                    1
                ],
                "metallicFactor" : 0,
                "roughnessFactor" : 0.5
            }
        },
        {
            "doubleSided" : true,
            "name" : "core dark",
            "pbrMetallicRoughness" : {
                "baseColorFactor" : [
                    0.08609206229448318,
                    0.0040059699676930904,
                    0,
                    1
                ],
                "metallicFactor" : 0,
                "roughnessFactor" : 0.5
            }
        },
        {
            "doubleSided" : true,
            "name" : "glass and core 2",
            "pbrMetallicRoughness" : {
                "baseColorFactor" : [
                    0.08488370478153229,
                    0.05461800843477249,
                    0.2895212173461914,
                    1
                ],
                "metallicFactor" : 0,
                "roughnessFactor" : 0.5
            }
        }
    ],
    "meshes" : [
        {
            "name" : "Cylinder.002",
            "primitives" : [
                {
                    "attributes" : {
                        "POSITION" : 0,
                        "NORMAL" : 1,
                        "TEXCOORD_0" : 2
                    },
                    "indices" : 3,
                    "material" : 0
                },
                {
                    "attributes" : {
                        "POSITION" : 4,
                        "NORMAL" : 5,
                        "TEXCOORD_0" : 6
                    },
                    "indices" : 7,
                    "material" : 1
                },
                {
                    "attributes" : {
                        "POSITION" : 8,
                        "NORMAL" : 9,
                        "TEXCOORD_0" : 10
                    },
                    "indices" : 11,
                    "material" : 2
                },
                {
                    "attributes" : {
                        "POSITION" : 12,
                        "NORMAL" : 13,
                        "TEXCOORD_0" : 14
                    },
                    "indices" : 15,
                    "material" : 3
                },
                {
                    "attributes" : {
                        "POSITION" : 16,
                        "NORMAL" : 17,
                        "TEXCOORD_0" : 18
                    },
                    "indices" : 19,
                    "material" : 4
                },
                {
                    "attributes" : {
                        "POSITION" : 20,
                        "NORMAL" : 21,
                        "TEXCOORD_0" : 22
                    },
                    "indices" : 23,
                    "material" : 5
                },
                {
                    "attributes" : {
                        "POSITION" : 24,
                        "NORMAL" : 25,
                        "TEXCOORD_0" : 26
                    },
                    "indices" : 27,
                    "material" : 6
                },
                {
                    "attributes" : {
                        "POSITION" : 28,
                        "NORMAL" : 29,
                        "TEXCOORD_0" : 30
                    },
                    "indices" : 31,
                    "material" : 7
                },
                {
                    "attributes" : {
                        "POSITION" : 32,
                        "NORMAL" : 33,
                        "TEXCOORD_0" : 34
                    },
                    "indices" : 35,
                    "material" : 8
                }
            ]
        }
    ],
    "accessors" : [
        {
            "bufferView" : 0,
            "componentType" : 5126,
            "count" : 138,
            "max" : [
                0.5731528997421265,
                1,
                0.5731528997421265
            ],
            "min" : [
                -0.5731528997421265,
                -1,
                -0.5731528997421265
            ],
            "type" : "VEC3"
        },
        {
            "bufferView" : 1,
            "componentType" : 5126,
            "count" : 138,
            "type" : "VEC3"
        },
        {
            "bufferView" : 2,
            "componentType" : 5126,
            "count" : 138,
            "type" : "VEC2"
        },
        {
            "bufferView" : 3,
            "componentType" : 5123,
            "count" : 384,
            "type" : "SCALAR"
        },
        {
            "bufferView" : 4,
            "componentType" : 5126,
            "count" : 64,
            "max" : [
                0.4089013934135437,
                1,
                0.4089014530181885
            ],
            "min" : [
                -0.4089013934135437,
                -1,
                -0.4089013934135437
            ],
            "type" : "VEC3"
        },
        {
            "bufferView" : 5,
            "componentType" : 5126,
            "count" : 64,
            "type" : "VEC3"
        },
        {
            "bufferView" : 6,
            "componentType" : 5126,
            "count" : 64,
            "type" : "VEC2"
        },
        {
            "bufferView" : 7,
            "componentType" : 5123,
            "count" : 180,
            "type" : "SCALAR"
        },
        {
            "bufferView" : 8,
            "componentType" : 5126,
            "count" : 252,
            "max" : [
                2.142293930053711,
                0.9326953887939453,
                0.7388989925384521
            ],
            "min" : [
                -2.142293930053711,
                -0.9326953887939453,
                -0.4135783016681671
            ],
            "type" : "VEC3"
        },
        {
            "bufferView" : 9,
            "componentType" : 5126,
            "count" : 252,
            "type" : "VEC3"
        },
        {
            "bufferView" : 10,
            "componentType" : 5126,
            "count" : 252,
            "type" : "VEC2"
        },
        {
            "bufferView" : 11,
            "componentType" : 5123,
            "count" : 384,
            "type" : "SCALAR"
        },
        {
            "bufferView" : 12,
            "componentType" : 5126,
            "count" : 384,
            "max" : [
                2.142293930053711,
                0.9326953291893005,
                2.9437050819396973
            ],
            "min" : [
                -2.142293930053711,
                -0.9326954483985901,
                -3.9344916343688965
            ],
            "type" : "VEC3"
        },
        {
            "bufferView" : 13,
            "componentType" : 5126,
            "count" : 384,
            "type" : "VEC3"
        },
        {
            "bufferView" : 14,
            "componentType" : 5126,
            "count" : 384,
            "type" : "VEC2"
        },
        {
            "bufferView" : 15,
            "componentType" : 5123,
            "count" : 744,
            "type" : "SCALAR"
        },
        {
            "bufferView" : 16,
            "componentType" : 5126,
            "count" : 384,
            "max" : [
                2.142293930053711,
                0.9326953291893005,
                2.732807159423828
            ],
            "min" : [
                -2.142293930053711,
                -0.9326954483985901,
                -3.7055070400238037
            ],
            "type" : "VEC3"
        },
        {
            "bufferView" : 17,
            "componentType" : 5126,
            "count" : 384,
            "type" : "VEC3"
        },
        {
            "bufferView" : 18,
            "componentType" : 5126,
            "count" : 384,
            "type" : "VEC2"
        },
        {
            "bufferView" : 19,
            "componentType" : 5123,
            "count" : 576,
            "type" : "SCALAR"
        },
        {
            "bufferView" : 20,
            "componentType" : 5126,
            "count" : 640,
            "max" : [
                2.142293930053711,
                0.9326954483985901,
                2.52190899848938
            ],
            "min" : [
                -2.142293930053711,
                -0.9326954483985901,
                -3.309986114501953
            ],
            "type" : "VEC3"
        },
        {
            "bufferView" : 21,
            "componentType" : 5126,
            "count" : 640,
            "type" : "VEC3"
        },
        {
            "bufferView" : 22,
            "componentType" : 5126,
            "count" : 640,
            "type" : "VEC2"
        },
        {
            "bufferView" : 23,
            "componentType" : 5123,
            "count" : 960,
            "type" : "SCALAR"
        },
        {
            "bufferView" : 24,
            "componentType" : 5126,
            "count" : 384,
            "max" : [
                2.142293930053711,
                0.9326953887939453,
                1.3151373863220215
            ],
            "min" : [
                -2.142293930053711,
                -0.9326954483985901,
                -2.9769158363342285
            ],
            "type" : "VEC3"
        },
        {
            "bufferView" : 25,
            "componentType" : 5126,
            "count" : 384,
            "type" : "VEC3"
        },
        {
            "bufferView" : 26,
            "componentType" : 5126,
            "count" : 384,
            "type" : "VEC2"
        },
        {
            "bufferView" : 27,
            "componentType" : 5123,
            "count" : 576,
            "type" : "SCALAR"
        },
        {
            "bufferView" : 28,
            "componentType" : 5126,
            "count" : 256,
            "max" : [
                1,
                1,
                1
            ],
            "min" : [
                -1,
                -1,
                -1
            ],
            "type" : "VEC3"
        },
        {
            "bufferView" : 29,
            "componentType" : 5126,
            "count" : 256,
            "type" : "VEC3"
        },
        {
            "bufferView" : 30,
            "componentType" : 5126,
            "count" : 256,
            "type" : "VEC2"
        },
        {
            "bufferView" : 31,
            "componentType" : 5123,
            "count" : 576,
            "type" : "SCALAR"
        },
        {
            "bufferView" : 32,
            "componentType" : 5126,
            "count" : 182,
            "max" : [
                0.7853116393089294,
                1,
                0.7853116393089294
            ],
            "min" : [
                -0.7853116393089294,
                -1,
                -0.7853116393089294
            ],
            "type" : "VEC3"
        },
        {
            "bufferView" : 33,
            "componentType" : 5126,
            "count" : 182,
            "type" : "VEC3"
        },
        {
            "bufferView" : 34,
            "componentType" : 5126,
            "count" : 182,
            "type" : "VEC2"
        },
        {
            "bufferView" : 35,
            "componentType" : 5123,
            "count" : 384,
            "type" : "SCALAR"
        }
    ],
    "bufferViews" : [
        {
            "buffer" : 0,
            "byteLength" : 1656,
            "byteOffset" : 0
        },
        {
            "buffer" : 0,
            "byteLength" : 1656,
            "byteOffset" : 1656
        },
        {
            "buffer" : 0,
            "byteLength" : 1104,
            "byteOffset" : 3312
        },
        {
            "buffer" : 0,
            "byteLength" : 768,
            "byteOffset" : 4416
        },
        {
            "buffer" : 0,
            "byteLength" : 768,
            "byteOffset" : 5184
        },
        {
            "buffer" : 0,
            "byteLength" : 768,
            "byteOffset" : 5952
        },
        {
            "buffer" : 0,
            "byteLength" : 512,
            "byteOffset" : 6720
        },
        {
            "buffer" : 0,
            "byteLength" : 360,
            "byteOffset" : 7232
        },
        {
            "buffer" : 0,
            "byteLength" : 3024,
            "byteOffset" : 7592
        },
        {
            "buffer" : 0,
            "byteLength" : 3024,
            "byteOffset" : 10616
        },
        {
            "buffer" : 0,
            "byteLength" : 2016,
            "byteOffset" : 13640
        },
        {
            "buffer" : 0,
            "byteLength" : 768,
            "byteOffset" : 15656
        },
        {
            "buffer" : 0,
            "byteLength" : 4608,
            "byteOffset" : 16424
        },
        {
            "buffer" : 0,
            "byteLength" : 4608,
            "byteOffset" : 21032
        },
        {
            "buffer" : 0,
            "byteLength" : 3072,
            "byteOffset" : 25640
        },
        {
            "buffer" : 0,
            "byteLength" : 1488,
            "byteOffset" : 28712
        },
        {
            "buffer" : 0,
            "byteLength" : 4608,
            "byteOffset" : 30200
        },
        {
            "buffer" : 0,
            "byteLength" : 4608,
            "byteOffset" : 34808
        },
        {
            "buffer" : 0,
            "byteLength" : 3072,
            "byteOffset" : 39416
        },
        {
            "buffer" : 0,
            "byteLength" : 1152,
            "byteOffset" : 42488
        },
        {
            "buffer" : 0,
            "byteLength" : 7680,
            "byteOffset" : 43640
        },
        {
            "buffer" : 0,
            "byteLength" : 7680,
            "byteOffset" : 51320
        },
        {
            "buffer" : 0,
            "byteLength" : 5120,
            "byteOffset" : 59000
        },
        {
            "buffer" : 0,
            "byteLength" : 1920,
            "byteOffset" : 64120
        },
        {
            "buffer" : 0,
            "byteLength" : 4608,
            "byteOffset" : 66040
        },
        {
            "buffer" : 0,
            "byteLength" : 4608,
            "byteOffset" : 70648
        },
        {
            "buffer" : 0,
            "byteLength" : 3072,
            "byteOffset" : 75256
        },
        {
            "buffer" : 0,
            "byteLength" : 1152,
            "byteOffset" : 78328
        },
        {
            "buffer" : 0,
            "byteLength" : 3072,
            "byteOffset" : 79480
        },
        {
            "buffer" : 0,
            "byteLength" : 3072,
            "byteOffset" : 82552
        },
        {
            "buffer" : 0,
            "byteLength" : 2048,
            "byteOffset" : 85624
        },
        {
            "buffer" : 0,
            "byteLength" : 1152,
            "byteOffset" : 87672
        },
        {
            "buffer" : 0,
            "byteLength" : 2184,
            "byteOffset" : 88824
        },
        {
            "buffer" : 0,
            "byteLength" : 2184,
            "byteOffset" : 91008
        },
        {
            "buffer" : 0,
            "byteLength" : 1456,
            "byteOffset" : 93192
        },
        {
            "buffer" : 0,
            "byteLength" : 768,
            "byteOffset" : 94648
        }
    ],
    "buffers" : [
        {
            "byteLength" : 95416,
            "uri" : "data:application/octet-stream;base64,"
        }
    ]
}
